<mxfile host="Electron" modified="2023-11-02T20:54:30.376Z" agent="Mozilla/5.0 (Windows NT 10.0; Win64; x64) AppleWebKit/537.36 (KHTML, like Gecko) draw.io/21.5.0 Chrome/112.0.5615.204 Electron/24.5.1 Safari/537.36" etag="igmuI8OD9QDuvj2YkC5a" version="21.5.0" type="device">
  <diagram name="Page-1" id="jOTbS239regMLlkqWPYL">
    <mxGraphModel dx="1450" dy="2221" grid="0" gridSize="10" guides="1" tooltips="1" connect="1" arrows="1" fold="1" page="0" pageScale="1" pageWidth="850" pageHeight="1100" math="0" shadow="0">
      <root>
        <mxCell id="0" />
        <mxCell id="1" parent="0" />
        <mxCell id="x1LBng_5WOXiY_3KLzgl-1" value="&lt;font style=&quot;font-weight: normal; font-size: 20px;&quot; color=&quot;#000000&quot;&gt;STM32F103C8T6&lt;/font&gt;" style="vsdxID=95;fillColor=#f8cecc;shape=stencil(nZCxDsIwDES/xitKk6V7KT/AF0TUEIuQVGmgwNeT9kCqOjB0s++efdKRaQZneyathpzilUfpsiOzJ60lOE6Sy0SmJdOcY+JLivfQYe9tIbWaFe5wU020VjadjvJmaPWu0jV0HN7iYwp8wlawXt8HCvsBqJewQH/mJvgPuhFcxZdhrgRlifdodOmvKywS6jftBw==);strokeColor=#b85450;spacingTop=-1;spacingBottom=-1;spacingLeft=-1;spacingRight=-1;points=[[0,0.75,0],[0,0.5,0],[0,0.25,0],[0.25,0,0],[0.5,0,0],[0.75,0,0],[1,0.25,0],[1,0.5,0],[1,0.75,0],[0.75,1,0],[0.5,1,0],[0.25,1,0]];labelBackgroundColor=none;rounded=1;html=1;whiteSpace=wrap;fontFamily=Calibri;fontSize=19;fontStyle=1;fontColor=#FFFFFF;" parent="1" vertex="1">
          <mxGeometry x="-65" y="-645" width="552" height="44" as="geometry" />
        </mxCell>
        <UserObject label="&lt;div style=&quot;&quot;&gt;&lt;font face=&quot;Calibri&quot;&gt;&lt;span style=&quot;font-size: 25.4px;&quot;&gt;RC Car System Layered Architecture&lt;/span&gt;&lt;/font&gt;&lt;/div&gt;" tags="Background" id="x1LBng_5WOXiY_3KLzgl-8">
          <mxCell style="verticalAlign=middle;align=center;overflow=width;vsdxID=47;fillColor=#647687;shape=stencil(nZBLDoAgDERP0z3SIyjew0SURgSD+Lu9kMZoXLhwN9O+tukAlrNpJg1SzDH4QW/URgNYgZTkjA4UkwJUgGXng+6DX1zLfmoymdXo17xh5zmRJ6Q42BWCfc2oJfdAr+Yv+AP9Cb7OJ3H/2JG1HNGz/84klThPVCc=);strokeColor=#314354;points=[];labelBackgroundColor=none;rounded=0;html=1;whiteSpace=wrap;fontColor=#ffffff;" parent="1" vertex="1">
            <mxGeometry x="7" y="-1330" width="355" height="152" as="geometry" />
          </mxCell>
        </UserObject>
        <UserObject label="" BpmnName="Application" tags="Flowchart" id="x1LBng_5WOXiY_3KLzgl-9">
          <mxCell style="vsdxID=71;fillColor=none;gradientColor=none;strokeColor=none;spacingTop=-1;spacingBottom=-1;spacingLeft=-1;spacingRight=-1;points=[[0,0.75,0],[0,0.5,0],[0,0.25,0],[0.25,0,0],[0.5,0,0],[0.75,0,0],[1,0.25,0],[1,0.5,0],[1,0.75,0],[0.75,1,0],[0.5,1,0],[0.25,1,0]];labelBackgroundColor=none;rounded=1;html=1;whiteSpace=wrap;fontFamily=Calibri;fontSize=19;fontStyle=1;fontColor=#FFFFFF;" parent="1" vertex="1">
            <mxGeometry x="-65" y="-1141" width="552" height="152" as="geometry" />
          </mxCell>
        </UserObject>
        <mxCell id="x1LBng_5WOXiY_3KLzgl-10" style="vsdxID=72;fillColor=#647687;shape=stencil(nZCxDsIwDES/xitKk6V7KT/AF0TUEIuQVGmgwNeT9kCqOjB0s++efdKRaQZneyathpzilUfpsiOzJ60lOE6Sy0SmJdOcY+JLivfQYe9tIbWaFe5wU020VjadjvJmaPWu0jV0HN7iYwp8wlawXt8HCvsBqJewQH/mJvgPuhFcxZdhrgRlifdodOmvKywS6jftBw==);strokeColor=#314354;spacingTop=-1;spacingBottom=-1;spacingLeft=-1;spacingRight=-1;points=[[0,0.75,0],[0,0.5,0],[0,0.25,0],[0.25,0,0],[0.5,0,0],[0.75,0,0],[1,0.25,0],[1,0.5,0],[1,0.75,0],[0.75,1,0],[0.5,1,0],[0.25,1,0]];labelBackgroundColor=none;rounded=1;html=1;whiteSpace=wrap;fontFamily=Calibri;fontSize=19;fontStyle=1;fontColor=#ffffff;" parent="x1LBng_5WOXiY_3KLzgl-9" vertex="1">
          <mxGeometry width="552" height="152" as="geometry" />
        </mxCell>
        <mxCell id="x1LBng_5WOXiY_3KLzgl-11" value="&lt;div style=&quot;font-size: 19px;&quot;&gt;&lt;/div&gt;" style="verticalAlign=middle;align=center;overflow=width;vsdxID=76;fillColor=none;gradientColor=none;strokeColor=none;strokeWidth=2;spacingTop=-3;spacingBottom=-3;spacingLeft=-3;spacingRight=-3;points=[[0,0.75,0],[0,0.5,0],[0,0.25,0],[0.25,0,0],[0.5,0,0],[0.75,0,0],[1,0.25,0],[1,0.5,0],[1,0.75,0],[0.75,1,0],[0.5,1,0],[0.25,1,0]];labelBackgroundColor=none;rounded=0;html=1;whiteSpace=wrap;fontFamily=Calibri;fontSize=19;fontStyle=1;fontColor=#FFFFFF;" parent="x1LBng_5WOXiY_3KLzgl-9" vertex="1">
          <mxGeometry x="277" y="132" width="16" height="16" as="geometry" />
        </mxCell>
        <mxCell id="x1LBng_5WOXiY_3KLzgl-12" value="&lt;div style=&quot;font-size: 19px;&quot;&gt;&lt;/div&gt;" style="verticalAlign=middle;align=center;overflow=width;vsdxID=84;fillColor=none;gradientColor=none;strokeColor=none;spacingTop=-1;spacingBottom=-1;spacingLeft=-1;spacingRight=-1;points=[[0,0.75,0],[0,0.5,0],[0,0.25,0],[0.25,0,0],[0.5,0,0],[0.75,0,0],[1,0.25,0],[1,0.5,0],[1,0.75,0],[0.75,1,0],[0.5,1,0],[0.25,1,0]];labelBackgroundColor=none;rounded=0;html=1;whiteSpace=wrap;fontFamily=Calibri;fontSize=19;fontStyle=1;fontColor=#FFFFFF;" parent="x1LBng_5WOXiY_3KLzgl-9" vertex="1">
          <mxGeometry x="5" y="5" width="14" height="14" as="geometry" />
        </mxCell>
        <mxCell id="x1LBng_5WOXiY_3KLzgl-13" value="&lt;div style=&quot;font-size: 19px;&quot;&gt;&lt;font style=&quot;font-size: 19px; direction: ltr; letter-spacing: 0px; line-height: 120%; opacity: 1;&quot;&gt;Application&lt;br style=&quot;font-size: 19px;&quot;&gt;&lt;/font&gt;&lt;/div&gt;" style="text;vsdxID=71;fillColor=none;gradientColor=none;strokeColor=none;spacingTop=-1;spacingBottom=-1;spacingLeft=-1;spacingRight=-1;points=[[0,0.75,0],[0,0.5,0],[0,0.25,0],[0.25,0,0],[0.5,0,0],[0.75,0,0],[1,0.25,0],[1,0.5,0],[1,0.75,0],[0.75,1,0],[0.5,1,0],[0.25,1,0]];labelBackgroundColor=none;rounded=1;html=1;whiteSpace=wrap;verticalAlign=top;align=center;overflow=width;;html=1;fontFamily=Calibri;fontSize=19;fontStyle=1;fontColor=#FFFFFF;" parent="x1LBng_5WOXiY_3KLzgl-9" vertex="1">
          <mxGeometry y="-0.4" width="552.45" as="geometry" />
        </mxCell>
        <mxCell id="x1LBng_5WOXiY_3KLzgl-14" value="&lt;font style=&quot;font-size: 20px; font-weight: normal;&quot;&gt;RC Car Application&lt;/font&gt;" style="text;strokeColor=none;fillColor=none;html=1;align=center;verticalAlign=middle;whiteSpace=wrap;rounded=0;fontSize=19;fontColor=#FFFFFF;fontFamily=Calibri;fontStyle=1" parent="x1LBng_5WOXiY_3KLzgl-9" vertex="1">
          <mxGeometry x="207.75" y="5" width="154.5" height="30" as="geometry" />
        </mxCell>
        <UserObject label="" BpmnName="APP" tags="Flowchart" id="x1LBng_5WOXiY_3KLzgl-21">
          <mxCell style="vsdxID=163;fillColor=none;gradientColor=none;strokeColor=none;spacingTop=-1;spacingBottom=-1;spacingLeft=-1;spacingRight=-1;points=[[0.14,1,0]];labelBackgroundColor=none;rounded=1;html=1;whiteSpace=wrap;fontFamily=Calibri;fontSize=19;fontStyle=1;fontColor=#FFFFFF;" parent="1" vertex="1">
            <mxGeometry x="-20" y="-1099" width="462" height="76" as="geometry" />
          </mxCell>
        </UserObject>
        <mxCell id="x1LBng_5WOXiY_3KLzgl-22" value="&lt;font color=&quot;#000000&quot;&gt;APP&lt;/font&gt;" style="vsdxID=164;fillColor=#ffffff;gradientColor=none;shape=stencil(nZCxDsIwDES/xitKk6V7KT/AF0TUEIuQVGmgwNeT9kCqOjB0s++efdKRaQZneyathpzilUfpsiOzJ60lOE6Sy0SmJdOcY+JLivfQYe9tIbWaFe5wU020VjadjvJmaPWu0jV0HN7iYwp8wlawXt8HCvsBqJewQH/mJvgPuhFcxZdhrgRlifdodOmvKywS6jftBw==);strokeColor=#647687;spacingTop=-1;spacingBottom=-1;spacingLeft=-1;spacingRight=-1;points=[[0,0.75,0],[0,0.5,0],[0,0.25,0],[0.25,0,0],[0.5,0,0],[0.75,0,0],[1,0.25,0],[1,0.5,0],[1,0.75,0],[0.75,1,0],[0.5,1,0],[0.25,1,0]];labelBackgroundColor=none;rounded=1;html=1;whiteSpace=wrap;fontFamily=Calibri;fontSize=19;fontStyle=1;fontColor=#FFFFFF;" parent="x1LBng_5WOXiY_3KLzgl-21" vertex="1">
          <mxGeometry width="462" height="76" as="geometry" />
        </mxCell>
        <mxCell id="x1LBng_5WOXiY_3KLzgl-23" value="&lt;div style=&quot;font-size: 19px;&quot;&gt;&lt;/div&gt;" style="verticalAlign=middle;align=center;overflow=width;vsdxID=168;fillColor=none;gradientColor=none;strokeColor=none;strokeWidth=2;spacingTop=-3;spacingBottom=-3;spacingLeft=-3;spacingRight=-3;points=[[0,0.75,0],[0,0.5,0],[0,0.25,0],[0.25,0,0],[0.5,0,0],[0.75,0,0],[1,0.25,0],[1,0.5,0],[1,0.75,0],[0.75,1,0],[0.5,1,0],[0.25,1,0]];labelBackgroundColor=none;rounded=0;html=1;whiteSpace=wrap;fontFamily=Calibri;fontSize=19;fontStyle=1;fontColor=#FFFFFF;" parent="x1LBng_5WOXiY_3KLzgl-21" vertex="1">
          <mxGeometry x="232" y="56" width="16" height="16" as="geometry" />
        </mxCell>
        <mxCell id="x1LBng_5WOXiY_3KLzgl-24" value="&lt;div style=&quot;font-size: 19px;&quot;&gt;&lt;/div&gt;" style="verticalAlign=middle;align=center;overflow=width;vsdxID=176;fillColor=none;gradientColor=none;strokeColor=none;spacingTop=-1;spacingBottom=-1;spacingLeft=-1;spacingRight=-1;points=[[0,0.75,0],[0,0.5,0],[0,0.25,0],[0.25,0,0],[0.5,0,0],[0.75,0,0],[1,0.25,0],[1,0.5,0],[1,0.75,0],[0.75,1,0],[0.5,1,0],[0.25,1,0]];labelBackgroundColor=none;rounded=0;html=1;whiteSpace=wrap;fontFamily=Calibri;fontSize=19;fontStyle=1;fontColor=#FFFFFF;" parent="x1LBng_5WOXiY_3KLzgl-21" vertex="1">
          <mxGeometry x="5" y="5" width="14" height="14" as="geometry" />
        </mxCell>
        <mxCell id="x1LBng_5WOXiY_3KLzgl-25" value="&lt;div style=&quot;font-size: 19px;&quot;&gt;&lt;font style=&quot;font-size: 19px; direction: ltr; letter-spacing: 0px; line-height: 120%; opacity: 1;&quot;&gt;&lt;span style=&quot;font-size: 19px;&quot;&gt;APP&lt;br style=&quot;font-size: 19px;&quot;&gt;&lt;/span&gt;&lt;/font&gt;&lt;/div&gt;" style="text;vsdxID=163;fillColor=none;gradientColor=none;strokeColor=none;spacingTop=-1;spacingBottom=-1;spacingLeft=-1;spacingRight=-1;points=[[0.14,1,0]];labelBackgroundColor=none;rounded=1;html=1;whiteSpace=wrap;verticalAlign=middle;align=center;overflow=width;;html=1;fontFamily=Calibri;fontSize=19;fontStyle=1;fontColor=#FFFFFF;" parent="x1LBng_5WOXiY_3KLzgl-21" vertex="1">
          <mxGeometry y="37.9" width="462.52" as="geometry" />
        </mxCell>
        <UserObject label="" BpmnName="LIB" tags="Flowchart" id="x1LBng_5WOXiY_3KLzgl-26">
          <mxCell style="vsdxID=209;fillColor=none;gradientColor=none;strokeColor=none;spacingTop=-1;spacingBottom=-1;spacingLeft=-1;spacingRight=-1;points=[[0,0.75,0],[0,0.5,0],[0,0.25,0],[0.25,0,0],[0.5,0,0],[0.75,0,0],[1,0.25,0],[1,0.5,0],[1,0.75,0],[0.75,1,0],[0.5,1,0],[0.25,1,0]];labelBackgroundColor=none;rounded=1;html=1;whiteSpace=wrap;" parent="1" vertex="1">
            <mxGeometry x="-179" y="-1141" width="101" height="539" as="geometry" />
          </mxCell>
        </UserObject>
        <mxCell id="x1LBng_5WOXiY_3KLzgl-27" style="vsdxID=210;fillColor=#a5a5a5;gradientColor=none;shape=stencil(nZCxDsIwDES/xitKk6V7KT/AF0TUEIuQVGmgwNeT9kCqOjB0s++efdKRaQZneyathpzilUfpsiOzJ60lOE6Sy0SmJdOcY+JLivfQYe9tIbWaFe5wU020VjadjvJmaPWu0jV0HN7iYwp8wlawXt8HCvsBqJewQH/mJvgPuhFcxZdhrgRlifdodOmvKywS6jftBw==);strokeColor=#a5a5a5;spacingTop=-1;spacingBottom=-1;spacingLeft=-1;spacingRight=-1;points=[[0,0.75,0],[0,0.5,0],[0,0.25,0],[0.25,0,0],[0.5,0,0],[0.75,0,0],[1,0.25,0],[1,0.5,0],[1,0.75,0],[0.75,1,0],[0.5,1,0],[0.25,1,0]];labelBackgroundColor=none;rounded=1;html=1;whiteSpace=wrap;" parent="x1LBng_5WOXiY_3KLzgl-26" vertex="1">
          <mxGeometry width="101" height="539" as="geometry" />
        </mxCell>
        <mxCell id="x1LBng_5WOXiY_3KLzgl-28" value="&lt;div style=&quot;font-size: 1px&quot;&gt;&lt;/div&gt;" style="verticalAlign=middle;align=center;overflow=width;vsdxID=214;fillColor=none;gradientColor=none;strokeColor=none;strokeWidth=2;spacingTop=-3;spacingBottom=-3;spacingLeft=-3;spacingRight=-3;points=[[0,0.75,0],[0,0.5,0],[0,0.25,0],[0.25,0,0],[0.5,0,0],[0.75,0,0],[1,0.25,0],[1,0.5,0],[1,0.75,0],[0.75,1,0],[0.5,1,0],[0.25,1,0]];labelBackgroundColor=none;rounded=0;html=1;whiteSpace=wrap;" parent="x1LBng_5WOXiY_3KLzgl-26" vertex="1">
          <mxGeometry x="51" y="519" width="16" height="16" as="geometry" />
        </mxCell>
        <mxCell id="x1LBng_5WOXiY_3KLzgl-29" value="&lt;div style=&quot;font-size: 1px&quot;&gt;&lt;/div&gt;" style="verticalAlign=middle;align=center;overflow=width;vsdxID=222;fillColor=none;gradientColor=none;strokeColor=none;spacingTop=-1;spacingBottom=-1;spacingLeft=-1;spacingRight=-1;points=[[0,0.75,0],[0,0.5,0],[0,0.25,0],[0.25,0,0],[0.5,0,0],[0.75,0,0],[1,0.25,0],[1,0.5,0],[1,0.75,0],[0.75,1,0],[0.5,1,0],[0.25,1,0]];labelBackgroundColor=none;rounded=0;html=1;whiteSpace=wrap;" parent="x1LBng_5WOXiY_3KLzgl-26" vertex="1">
          <mxGeometry x="5" y="5" width="14" height="14" as="geometry" />
        </mxCell>
        <mxCell id="x1LBng_5WOXiY_3KLzgl-30" value="&lt;div style=&quot;font-size: 1px&quot;&gt;&lt;font style=&quot;font-size:19.76px;font-family:Calibri;color:#ffffff;direction:ltr;letter-spacing:0px;line-height:120%;opacity:1&quot;&gt;LIB&lt;br/&gt;&lt;/font&gt;&lt;/div&gt;" style="text;vsdxID=209;fillColor=none;gradientColor=none;strokeColor=none;spacingTop=-1;spacingBottom=-1;spacingLeft=-1;spacingRight=-1;points=[[0,0.75,0],[0,0.5,0],[0,0.25,0],[0.25,0,0],[0.5,0,0],[0.75,0,0],[1,0.25,0],[1,0.5,0],[1,0.75,0],[0.75,1,0],[0.5,1,0],[0.25,1,0]];labelBackgroundColor=none;rounded=1;html=1;whiteSpace=wrap;verticalAlign=middle;align=center;overflow=width;rotation=270.05;;html=1;" parent="x1LBng_5WOXiY_3KLzgl-26" vertex="1">
          <mxGeometry x="-38.1" y="265.95" width="101.6" as="geometry" />
        </mxCell>
        <UserObject label="Con" tags="Background" id="x1LBng_5WOXiY_3KLzgl-31">
          <mxCell style="vsdxID=259;fillColor=none;gradientColor=none;strokeColor=none;points=[];labelBackgroundColor=none;rounded=0;html=1;whiteSpace=wrap;" parent="1" vertex="1">
            <mxGeometry x="-143" y="-1115" width="50" height="220" as="geometry" />
          </mxCell>
        </UserObject>
        <mxCell id="x1LBng_5WOXiY_3KLzgl-32" style="vsdxID=232;fillColor=none;gradientColor=none;strokeColor=none;spacingTop=-1;spacingBottom=-1;spacingLeft=-1;spacingRight=-1;points=[[0,0.75,0],[0,0.5,0],[0,0.25,0],[0.25,0,0],[0.5,0,0],[0.75,0,0],[1,0.25,0],[1,0.5,0],[1,0.75,0],[0.75,1,0],[0.5,1,0],[0.25,1,0]];labelBackgroundColor=none;rounded=1;html=1;whiteSpace=wrap;" parent="x1LBng_5WOXiY_3KLzgl-31" vertex="1">
          <mxGeometry width="50" height="220" as="geometry" />
        </mxCell>
        <mxCell id="x1LBng_5WOXiY_3KLzgl-33" style="vsdxID=233;fillColor=#ffffff;gradientColor=none;shape=stencil(nZCxDsIwDES/xitKk6V7KT/AF0TUEIuQVGmgwNeT9kCqOjB0s++efdKRaQZneyathpzilUfpsiOzJ60lOE6Sy0SmJdOcY+JLivfQYe9tIbWaFe5wU020VjadjvJmaPWu0jV0HN7iYwp8wlawXt8HCvsBqJewQH/mJvgPuhFcxZdhrgRlifdodOmvKywS6jftBw==);strokeColor=#a5a5a5;spacingTop=-1;spacingBottom=-1;spacingLeft=-1;spacingRight=-1;points=[[0,0.75,0],[0,0.5,0],[0,0.25,0],[0.25,0,0],[0.5,0,0],[0.75,0,0],[1,0.25,0],[1,0.5,0],[1,0.75,0],[0.75,1,0],[0.5,1,0],[0.25,1,0]];labelBackgroundColor=none;rounded=1;html=1;whiteSpace=wrap;" parent="x1LBng_5WOXiY_3KLzgl-32" vertex="1">
          <mxGeometry width="50" height="220" as="geometry" />
        </mxCell>
        <mxCell id="x1LBng_5WOXiY_3KLzgl-34" value="&lt;div style=&quot;font-size: 1px&quot;&gt;&lt;/div&gt;" style="verticalAlign=middle;align=center;overflow=width;vsdxID=237;fillColor=none;gradientColor=none;strokeColor=none;strokeWidth=2;spacingTop=-3;spacingBottom=-3;spacingLeft=-3;spacingRight=-3;points=[[0,0.75,0],[0,0.5,0],[0,0.25,0],[0.25,0,0],[0.5,0,0],[0.75,0,0],[1,0.25,0],[1,0.5,0],[1,0.75,0],[0.75,1,0],[0.5,1,0],[0.25,1,0]];labelBackgroundColor=none;rounded=0;html=1;whiteSpace=wrap;" parent="x1LBng_5WOXiY_3KLzgl-32" vertex="1">
          <mxGeometry x="26" y="200" width="16" height="16" as="geometry" />
        </mxCell>
        <mxCell id="x1LBng_5WOXiY_3KLzgl-35" value="&lt;div style=&quot;font-size: 1px&quot;&gt;&lt;/div&gt;" style="verticalAlign=middle;align=center;overflow=width;vsdxID=245;fillColor=none;gradientColor=none;strokeColor=none;spacingTop=-1;spacingBottom=-1;spacingLeft=-1;spacingRight=-1;points=[[0,0.75,0],[0,0.5,0],[0,0.25,0],[0.25,0,0],[0.5,0,0],[0.75,0,0],[1,0.25,0],[1,0.5,0],[1,0.75,0],[0.75,1,0],[0.5,1,0],[0.25,1,0]];labelBackgroundColor=none;rounded=0;html=1;whiteSpace=wrap;" parent="x1LBng_5WOXiY_3KLzgl-32" vertex="1">
          <mxGeometry x="5" y="5" width="14" height="14" as="geometry" />
        </mxCell>
        <mxCell id="x1LBng_5WOXiY_3KLzgl-36" value="&lt;div style=&quot;font-size: 1px&quot;&gt;&lt;/div&gt;" style="text;vsdxID=232;fillColor=none;gradientColor=none;strokeColor=none;spacingTop=-1;spacingBottom=-1;spacingLeft=-1;spacingRight=-1;points=[[0,0.75,0],[0,0.5,0],[0,0.25,0],[0.25,0,0],[0.5,0,0],[0.75,0,0],[1,0.25,0],[1,0.5,0],[1,0.75,0],[0.75,1,0],[0.5,1,0],[0.25,1,0]];labelBackgroundColor=none;rounded=1;html=1;whiteSpace=wrap;verticalAlign=top;align=center;overflow=width;rotation=270.05;;html=1;" parent="x1LBng_5WOXiY_3KLzgl-32" vertex="1">
          <mxGeometry x="-14.29" y="117.61" width="50.8" as="geometry" />
        </mxCell>
        <mxCell id="x1LBng_5WOXiY_3KLzgl-37" value="&lt;div style=&quot;font-size: 1px&quot;&gt;&lt;font style=&quot;font-size:16.93px;font-family:Calibri;color:#5b9bd5;direction:ltr;letter-spacing:0px;line-height:120%;opacity:1&quot;&gt;&lt;b&gt;CONFIG&lt;/b&gt;&lt;/font&gt;&lt;/div&gt;" style="verticalAlign=middle;align=center;overflow=width;vsdxID=257;rotation=270;fillColor=none;gradientColor=none;shape=stencil(nZBLDoAgDERP0z3SIyjew0SURgSD+Lu9kMZoXLhwN9O+tukAlrNpJg1SzDH4QW/URgNYgZTkjA4UkwJUgGXng+6DX1zLfmoymdXo17xh5zmRJ6Q42BWCfc2oJfdAr+Yv+AP9Cb7OJ3H/2JG1HNGz/84klThPVCc=);strokeColor=none;points=[];labelBackgroundColor=none;rounded=0;html=1;whiteSpace=wrap;" parent="x1LBng_5WOXiY_3KLzgl-31" vertex="1">
          <mxGeometry x="-81" y="92" width="211" height="35" as="geometry" />
        </mxCell>
        <UserObject label="&lt;font style=&quot;font-size: 21px;&quot;&gt;LIB&lt;/font&gt;" tags="Background" id="x1LBng_5WOXiY_3KLzgl-48">
          <mxCell style="vsdxID=492;fillColor=none;gradientColor=none;strokeColor=none;points=[];labelBackgroundColor=none;rounded=0;html=1;whiteSpace=wrap;horizontal=0;fontFamily=Calibri;fontSize=19;fontColor=#ffffff;" parent="1" vertex="1">
            <mxGeometry x="-198" y="-924" width="73" height="104" as="geometry" />
          </mxCell>
        </UserObject>
        <UserObject label="" tags="Background" id="x1LBng_5WOXiY_3KLzgl-49">
          <mxCell style="vsdxID=542;fillColor=none;gradientColor=none;strokeColor=none;points=[];labelBackgroundColor=none;rounded=0;html=1;whiteSpace=wrap;" parent="1" vertex="1">
            <mxGeometry x="-143" y="-853" width="50" height="220" as="geometry" />
          </mxCell>
        </UserObject>
        <mxCell id="x1LBng_5WOXiY_3KLzgl-50" style="vsdxID=543;fillColor=none;gradientColor=none;strokeColor=none;spacingTop=-1;spacingBottom=-1;spacingLeft=-1;spacingRight=-1;points=[[0,0.75,0],[0,0.5,0],[0,0.25,0],[0.25,0,0],[0.5,0,0],[0.75,0,0],[1,0.25,0],[1,0.5,0],[1,0.75,0],[0.75,1,0],[0.5,1,0],[0.25,1,0]];labelBackgroundColor=none;rounded=1;html=1;whiteSpace=wrap;" parent="x1LBng_5WOXiY_3KLzgl-49" vertex="1">
          <mxGeometry width="50" height="220" as="geometry" />
        </mxCell>
        <mxCell id="x1LBng_5WOXiY_3KLzgl-51" style="vsdxID=544;fillColor=#ffffff;gradientColor=none;shape=stencil(nZCxDsIwDES/xitKk6V7KT/AF0TUEIuQVGmgwNeT9kCqOjB0s++efdKRaQZneyathpzilUfpsiOzJ60lOE6Sy0SmJdOcY+JLivfQYe9tIbWaFe5wU020VjadjvJmaPWu0jV0HN7iYwp8wlawXt8HCvsBqJewQH/mJvgPuhFcxZdhrgRlifdodOmvKywS6jftBw==);strokeColor=#a5a5a5;spacingTop=-1;spacingBottom=-1;spacingLeft=-1;spacingRight=-1;points=[[0,0.75,0],[0,0.5,0],[0,0.25,0],[0.25,0,0],[0.5,0,0],[0.75,0,0],[1,0.25,0],[1,0.5,0],[1,0.75,0],[0.75,1,0],[0.5,1,0],[0.25,1,0]];labelBackgroundColor=none;rounded=1;html=1;whiteSpace=wrap;" parent="x1LBng_5WOXiY_3KLzgl-50" vertex="1">
          <mxGeometry width="50" height="220" as="geometry" />
        </mxCell>
        <mxCell id="x1LBng_5WOXiY_3KLzgl-52" value="&lt;div style=&quot;font-size: 1px&quot;&gt;&lt;/div&gt;" style="verticalAlign=middle;align=center;overflow=width;vsdxID=548;fillColor=none;gradientColor=none;strokeColor=none;strokeWidth=2;spacingTop=-3;spacingBottom=-3;spacingLeft=-3;spacingRight=-3;points=[[0,0.75,0],[0,0.5,0],[0,0.25,0],[0.25,0,0],[0.5,0,0],[0.75,0,0],[1,0.25,0],[1,0.5,0],[1,0.75,0],[0.75,1,0],[0.5,1,0],[0.25,1,0]];labelBackgroundColor=none;rounded=0;html=1;whiteSpace=wrap;" parent="x1LBng_5WOXiY_3KLzgl-50" vertex="1">
          <mxGeometry x="26" y="200" width="16" height="16" as="geometry" />
        </mxCell>
        <mxCell id="x1LBng_5WOXiY_3KLzgl-53" value="&lt;div style=&quot;font-size: 1px&quot;&gt;&lt;/div&gt;" style="verticalAlign=middle;align=center;overflow=width;vsdxID=556;fillColor=none;gradientColor=none;strokeColor=none;spacingTop=-1;spacingBottom=-1;spacingLeft=-1;spacingRight=-1;points=[[0,0.75,0],[0,0.5,0],[0,0.25,0],[0.25,0,0],[0.5,0,0],[0.75,0,0],[1,0.25,0],[1,0.5,0],[1,0.75,0],[0.75,1,0],[0.5,1,0],[0.25,1,0]];labelBackgroundColor=none;rounded=0;html=1;whiteSpace=wrap;" parent="x1LBng_5WOXiY_3KLzgl-50" vertex="1">
          <mxGeometry x="5" y="5" width="14" height="14" as="geometry" />
        </mxCell>
        <mxCell id="x1LBng_5WOXiY_3KLzgl-54" value="&lt;div style=&quot;font-size: 1px&quot;&gt;&lt;/div&gt;" style="text;vsdxID=543;fillColor=none;gradientColor=none;strokeColor=none;spacingTop=-1;spacingBottom=-1;spacingLeft=-1;spacingRight=-1;points=[[0,0.75,0],[0,0.5,0],[0,0.25,0],[0.25,0,0],[0.5,0,0],[0.75,0,0],[1,0.25,0],[1,0.5,0],[1,0.75,0],[0.75,1,0],[0.5,1,0],[0.25,1,0]];labelBackgroundColor=none;rounded=1;html=1;whiteSpace=wrap;verticalAlign=top;align=center;overflow=width;rotation=270.05;;html=1;" parent="x1LBng_5WOXiY_3KLzgl-50" vertex="1">
          <mxGeometry x="-14.29" y="117.61" width="50.8" as="geometry" />
        </mxCell>
        <mxCell id="x1LBng_5WOXiY_3KLzgl-55" value="&lt;div style=&quot;font-size: 1px&quot;&gt;&lt;font style=&quot;font-size:16.93px;font-family:Calibri;color:#5b9bd5;direction:ltr;letter-spacing:0px;line-height:120%;opacity:1&quot;&gt;&lt;b&gt;STD&lt;br&gt;&lt;/b&gt;&lt;/font&gt;&lt;/div&gt;" style="verticalAlign=middle;align=center;overflow=width;vsdxID=566;rotation=270;fillColor=none;gradientColor=none;shape=stencil(nZBLDoAgDERP0z3SIyjew0SURgSD+Lu9kMZoXLhwN9O+tukAlrNpJg1SzDH4QW/URgNYgZTkjA4UkwJUgGXng+6DX1zLfmoymdXo17xh5zmRJ6Q42BWCfc2oJfdAr+Yv+AP9Cb7OJ3H/2JG1HNGz/84klThPVCc=);strokeColor=none;points=[];labelBackgroundColor=none;rounded=0;html=1;whiteSpace=wrap;" parent="x1LBng_5WOXiY_3KLzgl-49" vertex="1">
          <mxGeometry x="-81" y="92" width="211" height="35" as="geometry" />
        </mxCell>
        <mxCell id="x1LBng_5WOXiY_3KLzgl-90" value="&lt;div style=&quot;font-size: 19px;&quot;&gt;&lt;/div&gt;" style="verticalAlign=middle;align=center;overflow=width;vsdxID=99;fillColor=none;gradientColor=none;strokeColor=none;strokeWidth=2;spacingTop=-3;spacingBottom=-3;spacingLeft=-3;spacingRight=-3;points=[[0,0.75,0],[0,0.5,0],[0,0.25,0],[0.25,0,0],[0.5,0,0],[0.75,0,0],[1,0.25,0],[1,0.5,0],[1,0.75,0],[0.75,1,0],[0.5,1,0],[0.25,1,0]];labelBackgroundColor=none;rounded=0;html=1;whiteSpace=wrap;fontFamily=Calibri;fontSize=19;fontStyle=1;fontColor=#FFFFFF;" parent="1" vertex="1">
          <mxGeometry x="212" y="-621" width="16" height="16" as="geometry" />
        </mxCell>
        <mxCell id="x1LBng_5WOXiY_3KLzgl-91" value="&lt;div style=&quot;font-size: 19px;&quot;&gt;&lt;/div&gt;" style="verticalAlign=middle;align=center;overflow=width;vsdxID=107;fillColor=none;gradientColor=none;strokeColor=none;spacingTop=-1;spacingBottom=-1;spacingLeft=-1;spacingRight=-1;points=[[0,0.75,0],[0,0.5,0],[0,0.25,0],[0.25,0,0],[0.5,0,0],[0.75,0,0],[1,0.25,0],[1,0.5,0],[1,0.75,0],[0.75,1,0],[0.5,1,0],[0.25,1,0]];labelBackgroundColor=none;rounded=0;html=1;whiteSpace=wrap;fontFamily=Calibri;fontSize=19;fontStyle=1;fontColor=#FFFFFF;" parent="1" vertex="1">
          <mxGeometry x="-60" y="-640" width="14" height="14" as="geometry" />
        </mxCell>
        <mxCell id="x1LBng_5WOXiY_3KLzgl-92" value="&lt;div style=&quot;font-size: 19px;&quot;&gt;&lt;font style=&quot;font-size: 19px; direction: ltr; letter-spacing: 0px; line-height: 120%; opacity: 1;&quot;&gt;Microcontroller&lt;br style=&quot;font-size: 19px;&quot;&gt;&lt;/font&gt;&lt;/div&gt;" style="text;vsdxID=94;fillColor=none;gradientColor=none;strokeColor=none;spacingTop=-1;spacingBottom=-1;spacingLeft=-1;spacingRight=-1;points=[[0,0.75,0],[0,0.5,0],[0,0.25,0],[0.25,0,0],[0.5,0,0],[0.75,0,0],[1,0.25,0],[1,0.5,0],[1,0.75,0],[0.75,1,0],[0.5,1,0],[0.25,1,0]];labelBackgroundColor=none;rounded=1;html=1;whiteSpace=wrap;verticalAlign=middle;align=center;overflow=width;;html=1;fontFamily=Calibri;fontSize=19;fontStyle=1;fontColor=#FFFFFF;" parent="1" vertex="1">
          <mxGeometry x="-65" y="-623.22" width="552.45" as="geometry" />
        </mxCell>
        <UserObject label="&lt;div style=&quot;font-size: 1px&quot;&gt;&lt;font style=&quot;font-size:25.4px;font-family:Calibri;color:#ffffff;direction:ltr;letter-spacing:0px;line-height:120%;opacity:1&quot;&gt;Fiat STM System Layered Architecture&lt;/font&gt;&lt;/div&gt;" tags="Background" id="DHWaCnv6wQ5KDlzJWWmU-98">
          <mxCell style="verticalAlign=middle;align=center;overflow=width;vsdxID=47;fillColor=#76608a;shape=stencil(nZBLDoAgDERP0z3SIyjew0SURgSD+Lu9kMZoXLhwN9O+tukAlrNpJg1SzDH4QW/URgNYgZTkjA4UkwJUgGXng+6DX1zLfmoymdXo17xh5zmRJ6Q42BWCfc2oJfdAr+Yv+AP9Cb7OJ3H/2JG1HNGz/84klThPVCc=);strokeColor=#432D57;points=[];labelBackgroundColor=none;rounded=0;html=1;whiteSpace=wrap;fontColor=#ffffff;" parent="1" vertex="1">
            <mxGeometry x="1026" y="-1330" width="355" height="152" as="geometry" />
          </mxCell>
        </UserObject>
        <mxCell id="aonm1SXAe8uSIM5W8oRi-1" value="&lt;span style=&quot;font-size: 20px; font-weight: 400;&quot;&gt;CMSIS&lt;br&gt;&lt;/span&gt;" style="vsdxID=95;fillColor=#dae8fc;shape=stencil(nZCxDsIwDES/xitKk6V7KT/AF0TUEIuQVGmgwNeT9kCqOjB0s++efdKRaQZneyathpzilUfpsiOzJ60lOE6Sy0SmJdOcY+JLivfQYe9tIbWaFe5wU020VjadjvJmaPWu0jV0HN7iYwp8wlawXt8HCvsBqJewQH/mJvgPuhFcxZdhrgRlifdodOmvKywS6jftBw==);strokeColor=none;spacingTop=-1;spacingBottom=-1;spacingLeft=-1;spacingRight=-1;points=[[0,0.75,0],[0,0.5,0],[0,0.25,0],[0.25,0,0],[0.5,0,0],[0.75,0,0],[1,0.25,0],[1,0.5,0],[1,0.75,0],[0.75,1,0],[0.5,1,0],[0.25,1,0]];labelBackgroundColor=none;rounded=1;html=1;whiteSpace=wrap;fontFamily=Calibri;fontSize=19;fontStyle=1;" parent="1" vertex="1">
          <mxGeometry x="-65" y="-705" width="552" height="44" as="geometry" />
        </mxCell>
        <mxCell id="aonm1SXAe8uSIM5W8oRi-3" value="" style="vsdxID=95;fillColor=#ffe6cc;shape=stencil(nZCxDsIwDES/xitKk6V7KT/AF0TUEIuQVGmgwNeT9kCqOjB0s++efdKRaQZneyathpzilUfpsiOzJ60lOE6Sy0SmJdOcY+JLivfQYe9tIbWaFe5wU020VjadjvJmaPWu0jV0HN7iYwp8wlawXt8HCvsBqJewQH/mJvgPuhFcxZdhrgRlifdodOmvKywS6jftBw==);strokeColor=#d79b00;spacingTop=-1;spacingBottom=-1;spacingLeft=-1;spacingRight=-1;points=[[0,0.75,0],[0,0.5,0],[0,0.25,0],[0.25,0,0],[0.5,0,0],[0.75,0,0],[1,0.25,0],[1,0.5,0],[1,0.75,0],[0.75,1,0],[0.5,1,0],[0.25,1,0]];labelBackgroundColor=none;rounded=1;html=1;whiteSpace=wrap;fontFamily=Calibri;fontSize=19;fontStyle=1;arcSize=15;verticalAlign=top;" parent="1" vertex="1">
          <mxGeometry x="1" y="-856" width="486" height="138" as="geometry" />
        </mxCell>
        <mxCell id="aonm1SXAe8uSIM5W8oRi-4" value="US" style="vsdxID=334;fillColor=#f0a30a;shape=stencil(nZCxDsIwDES/xitKk6V7KT/AF0TUEIuQVGmgwNeT9kCqOjB0s++efdKRaQZneyathpzilUfpsiOzJ60lOE6Sy0SmJdOcY+JLivfQYe9tIbWaFe5wU020VjadjvJmaPWu0jV0HN7iYwp8wlawXt8HCvsBqJewQH/mJvgPuhFcxZdhrgRlifdodOmvKywS6jftBw==);strokeColor=#BD7000;spacingTop=-1;spacingBottom=-1;spacingLeft=-1;spacingRight=-1;points=[[0,0.75,0],[0,0.5,0],[0,0.25,0],[0.25,0,0],[0.5,0,0],[0.75,0,0],[1,0.25,0],[1,0.5,0],[1,0.75,0],[0.75,1,0],[0.5,1,0],[0.25,1,0]];labelBackgroundColor=none;rounded=1;html=1;whiteSpace=wrap;fontColor=#FFFFFF;fontFamily=Calibri;fontSize=19;fontStyle=1" parent="1" vertex="1">
          <mxGeometry x="184.5" y="-821" width="120" height="70" as="geometry" />
        </mxCell>
        <mxCell id="aonm1SXAe8uSIM5W8oRi-5" value="DCM" style="vsdxID=334;fillColor=#f0a30a;shape=stencil(nZCxDsIwDES/xitKk6V7KT/AF0TUEIuQVGmgwNeT9kCqOjB0s++efdKRaQZneyathpzilUfpsiOzJ60lOE6Sy0SmJdOcY+JLivfQYe9tIbWaFe5wU020VjadjvJmaPWu0jV0HN7iYwp8wlawXt8HCvsBqJewQH/mJvgPuhFcxZdhrgRlifdodOmvKywS6jftBw==);strokeColor=#BD7000;spacingTop=-1;spacingBottom=-1;spacingLeft=-1;spacingRight=-1;points=[[0,0.75,0],[0,0.5,0],[0,0.25,0],[0.25,0,0],[0.5,0,0],[0.75,0,0],[1,0.25,0],[1,0.5,0],[1,0.75,0],[0.75,1,0],[0.5,1,0],[0.25,1,0]];labelBackgroundColor=none;rounded=1;html=1;whiteSpace=wrap;fontColor=#FFFFFF;fontFamily=Calibri;fontSize=19;fontStyle=1" parent="1" vertex="1">
          <mxGeometry x="323.5" y="-823" width="120" height="70" as="geometry" />
        </mxCell>
        <mxCell id="aonm1SXAe8uSIM5W8oRi-7" value="&lt;span style=&quot;font-size: 20px; font-weight: 400;&quot;&gt;OS&lt;/span&gt;" style="vsdxID=95;fillColor=#d5e8d4;shape=stencil(nZCxDsIwDES/xitKk6V7KT/AF0TUEIuQVGmgwNeT9kCqOjB0s++efdKRaQZneyathpzilUfpsiOzJ60lOE6Sy0SmJdOcY+JLivfQYe9tIbWaFe5wU020VjadjvJmaPWu0jV0HN7iYwp8wlawXt8HCvsBqJewQH/mJvgPuhFcxZdhrgRlifdodOmvKywS6jftBw==);strokeColor=#82b366;spacingTop=-1;spacingBottom=-1;spacingLeft=-1;spacingRight=-1;points=[[0,0.75,0],[0,0.5,0],[0,0.25,0],[0.25,0,0],[0.5,0,0],[0.75,0,0],[1,0.25,0],[1,0.5,0],[1,0.75,0],[0.75,1,0],[0.5,1,0],[0.25,1,0]];labelBackgroundColor=none;rounded=1;html=1;whiteSpace=wrap;fontFamily=Calibri;fontSize=19;fontStyle=1;arcSize=15;labelPosition=center;verticalLabelPosition=middle;align=center;verticalAlign=top;" parent="1" vertex="1">
          <mxGeometry x="497" y="-1141" width="127" height="476" as="geometry" />
        </mxCell>
        <mxCell id="aonm1SXAe8uSIM5W8oRi-8" value="FreeRTOS" style="vsdxID=334;fillColor=#60a917;shape=stencil(nZCxDsIwDES/xitKk6V7KT/AF0TUEIuQVGmgwNeT9kCqOjB0s++efdKRaQZneyathpzilUfpsiOzJ60lOE6Sy0SmJdOcY+JLivfQYe9tIbWaFe5wU020VjadjvJmaPWu0jV0HN7iYwp8wlawXt8HCvsBqJewQH/mJvgPuhFcxZdhrgRlifdodOmvKywS6jftBw==);strokeColor=#2D7600;spacingTop=-1;spacingBottom=-1;spacingLeft=-1;spacingRight=-1;points=[[0,0.75,0],[0,0.5,0],[0,0.25,0],[0.25,0,0],[0.5,0,0],[0.75,0,0],[1,0.25,0],[1,0.5,0],[1,0.75,0],[0.75,1,0],[0.5,1,0],[0.25,1,0]];labelBackgroundColor=none;rounded=1;html=1;whiteSpace=wrap;fontColor=#ffffff;fontFamily=Calibri;fontSize=19;fontStyle=1;horizontal=0;align=center;" parent="1" vertex="1">
          <mxGeometry x="523.25" y="-1093.5" width="74.5" height="406" as="geometry" />
        </mxCell>
        <mxCell id="aonm1SXAe8uSIM5W8oRi-9" value="OLED" style="vsdxID=334;fillColor=#f0a30a;shape=stencil(nZCxDsIwDES/xitKk6V7KT/AF0TUEIuQVGmgwNeT9kCqOjB0s++efdKRaQZneyathpzilUfpsiOzJ60lOE6Sy0SmJdOcY+JLivfQYe9tIbWaFe5wU020VjadjvJmaPWu0jV0HN7iYwp8wlawXt8HCvsBqJewQH/mJvgPuhFcxZdhrgRlifdodOmvKywS6jftBw==);strokeColor=#BD7000;spacingTop=-1;spacingBottom=-1;spacingLeft=-1;spacingRight=-1;points=[[0,0.75,0],[0,0.5,0],[0,0.25,0],[0.25,0,0],[0.5,0,0],[0.75,0,0],[1,0.25,0],[1,0.5,0],[1,0.75,0],[0.75,1,0],[0.5,1,0],[0.25,1,0]];labelBackgroundColor=none;rounded=1;html=1;whiteSpace=wrap;fontColor=#FFFFFF;fontFamily=Calibri;fontSize=19;fontStyle=1" parent="1" vertex="1">
          <mxGeometry x="44.5" y="-821" width="120" height="70" as="geometry" />
        </mxCell>
        <mxCell id="aonm1SXAe8uSIM5W8oRi-10" value="&lt;font style=&quot;font-weight: normal; font-size: 20px;&quot; color=&quot;#000000&quot;&gt;STM32F103C8T6&lt;/font&gt;" style="vsdxID=95;fillColor=#f8cecc;shape=stencil(nZCxDsIwDES/xitKk6V7KT/AF0TUEIuQVGmgwNeT9kCqOjB0s++efdKRaQZneyathpzilUfpsiOzJ60lOE6Sy0SmJdOcY+JLivfQYe9tIbWaFe5wU020VjadjvJmaPWu0jV0HN7iYwp8wlawXt8HCvsBqJewQH/mJvgPuhFcxZdhrgRlifdodOmvKywS6jftBw==);strokeColor=#b85450;spacingTop=-1;spacingBottom=-1;spacingLeft=-1;spacingRight=-1;points=[[0,0.75,0],[0,0.5,0],[0,0.25,0],[0.25,0,0],[0.5,0,0],[0.75,0,0],[1,0.25,0],[1,0.5,0],[1,0.75,0],[0.75,1,0],[0.5,1,0],[0.25,1,0]];labelBackgroundColor=none;rounded=1;html=1;whiteSpace=wrap;fontFamily=Calibri;fontSize=19;fontStyle=1;fontColor=#FFFFFF;" parent="1" vertex="1">
          <mxGeometry x="902" y="-638.6" width="552" height="44" as="geometry" />
        </mxCell>
        <UserObject label="" BpmnName="Application" tags="Flowchart" id="aonm1SXAe8uSIM5W8oRi-11">
          <mxCell style="vsdxID=71;fillColor=none;gradientColor=none;strokeColor=none;spacingTop=-1;spacingBottom=-1;spacingLeft=-1;spacingRight=-1;points=[[0,0.75,0],[0,0.5,0],[0,0.25,0],[0.25,0,0],[0.5,0,0],[0.75,0,0],[1,0.25,0],[1,0.5,0],[1,0.75,0],[0.75,1,0],[0.5,1,0],[0.25,1,0]];labelBackgroundColor=none;rounded=1;html=1;whiteSpace=wrap;fontFamily=Calibri;fontSize=19;fontStyle=1;fontColor=#FFFFFF;" parent="1" vertex="1">
            <mxGeometry x="902" y="-1134.6" width="552" height="152" as="geometry" />
          </mxCell>
        </UserObject>
        <mxCell id="aonm1SXAe8uSIM5W8oRi-12" style="vsdxID=72;fillColor=#647687;shape=stencil(nZCxDsIwDES/xitKk6V7KT/AF0TUEIuQVGmgwNeT9kCqOjB0s++efdKRaQZneyathpzilUfpsiOzJ60lOE6Sy0SmJdOcY+JLivfQYe9tIbWaFe5wU020VjadjvJmaPWu0jV0HN7iYwp8wlawXt8HCvsBqJewQH/mJvgPuhFcxZdhrgRlifdodOmvKywS6jftBw==);strokeColor=#314354;spacingTop=-1;spacingBottom=-1;spacingLeft=-1;spacingRight=-1;points=[[0,0.75,0],[0,0.5,0],[0,0.25,0],[0.25,0,0],[0.5,0,0],[0.75,0,0],[1,0.25,0],[1,0.5,0],[1,0.75,0],[0.75,1,0],[0.5,1,0],[0.25,1,0]];labelBackgroundColor=none;rounded=1;html=1;whiteSpace=wrap;fontFamily=Calibri;fontSize=19;fontStyle=1;fontColor=#ffffff;" parent="aonm1SXAe8uSIM5W8oRi-11" vertex="1">
          <mxGeometry width="552" height="152" as="geometry" />
        </mxCell>
        <mxCell id="aonm1SXAe8uSIM5W8oRi-13" value="&lt;div style=&quot;font-size: 19px;&quot;&gt;&lt;/div&gt;" style="verticalAlign=middle;align=center;overflow=width;vsdxID=76;fillColor=none;gradientColor=none;strokeColor=none;strokeWidth=2;spacingTop=-3;spacingBottom=-3;spacingLeft=-3;spacingRight=-3;points=[[0,0.75,0],[0,0.5,0],[0,0.25,0],[0.25,0,0],[0.5,0,0],[0.75,0,0],[1,0.25,0],[1,0.5,0],[1,0.75,0],[0.75,1,0],[0.5,1,0],[0.25,1,0]];labelBackgroundColor=none;rounded=0;html=1;whiteSpace=wrap;fontFamily=Calibri;fontSize=19;fontStyle=1;fontColor=#FFFFFF;" parent="aonm1SXAe8uSIM5W8oRi-11" vertex="1">
          <mxGeometry x="277" y="132" width="16" height="16" as="geometry" />
        </mxCell>
        <mxCell id="aonm1SXAe8uSIM5W8oRi-14" value="&lt;div style=&quot;font-size: 19px;&quot;&gt;&lt;/div&gt;" style="verticalAlign=middle;align=center;overflow=width;vsdxID=84;fillColor=none;gradientColor=none;strokeColor=none;spacingTop=-1;spacingBottom=-1;spacingLeft=-1;spacingRight=-1;points=[[0,0.75,0],[0,0.5,0],[0,0.25,0],[0.25,0,0],[0.5,0,0],[0.75,0,0],[1,0.25,0],[1,0.5,0],[1,0.75,0],[0.75,1,0],[0.5,1,0],[0.25,1,0]];labelBackgroundColor=none;rounded=0;html=1;whiteSpace=wrap;fontFamily=Calibri;fontSize=19;fontStyle=1;fontColor=#FFFFFF;" parent="aonm1SXAe8uSIM5W8oRi-11" vertex="1">
          <mxGeometry x="5" y="5" width="14" height="14" as="geometry" />
        </mxCell>
        <mxCell id="aonm1SXAe8uSIM5W8oRi-15" value="&lt;div style=&quot;font-size: 19px;&quot;&gt;&lt;font style=&quot;font-size: 19px; direction: ltr; letter-spacing: 0px; line-height: 120%; opacity: 1;&quot;&gt;Application&lt;br style=&quot;font-size: 19px;&quot;&gt;&lt;/font&gt;&lt;/div&gt;" style="text;vsdxID=71;fillColor=none;gradientColor=none;strokeColor=none;spacingTop=-1;spacingBottom=-1;spacingLeft=-1;spacingRight=-1;points=[[0,0.75,0],[0,0.5,0],[0,0.25,0],[0.25,0,0],[0.5,0,0],[0.75,0,0],[1,0.25,0],[1,0.5,0],[1,0.75,0],[0.75,1,0],[0.5,1,0],[0.25,1,0]];labelBackgroundColor=none;rounded=1;html=1;whiteSpace=wrap;verticalAlign=top;align=center;overflow=width;;html=1;fontFamily=Calibri;fontSize=19;fontStyle=1;fontColor=#FFFFFF;" parent="aonm1SXAe8uSIM5W8oRi-11" vertex="1">
          <mxGeometry y="-0.4" width="552.45" as="geometry" />
        </mxCell>
        <mxCell id="aonm1SXAe8uSIM5W8oRi-16" value="&lt;font style=&quot;font-size: 20px; font-weight: normal;&quot;&gt;Fiat Can Application&lt;/font&gt;" style="text;strokeColor=none;fillColor=none;html=1;align=center;verticalAlign=middle;whiteSpace=wrap;rounded=0;fontSize=19;fontColor=#FFFFFF;fontFamily=Calibri;fontStyle=1" parent="aonm1SXAe8uSIM5W8oRi-11" vertex="1">
          <mxGeometry x="146.88" y="5" width="276.25" height="30" as="geometry" />
        </mxCell>
        <UserObject label="" BpmnName="APP" tags="Flowchart" id="aonm1SXAe8uSIM5W8oRi-17">
          <mxCell style="vsdxID=163;fillColor=none;gradientColor=none;strokeColor=none;spacingTop=-1;spacingBottom=-1;spacingLeft=-1;spacingRight=-1;points=[[0.14,1,0]];labelBackgroundColor=none;rounded=1;html=1;whiteSpace=wrap;fontFamily=Calibri;fontSize=19;fontStyle=1;fontColor=#FFFFFF;" parent="1" vertex="1">
            <mxGeometry x="947" y="-1092.6" width="462" height="76" as="geometry" />
          </mxCell>
        </UserObject>
        <mxCell id="aonm1SXAe8uSIM5W8oRi-18" value="&lt;font color=&quot;#000000&quot;&gt;APP&lt;/font&gt;" style="vsdxID=164;fillColor=#ffffff;gradientColor=none;shape=stencil(nZCxDsIwDES/xitKk6V7KT/AF0TUEIuQVGmgwNeT9kCqOjB0s++efdKRaQZneyathpzilUfpsiOzJ60lOE6Sy0SmJdOcY+JLivfQYe9tIbWaFe5wU020VjadjvJmaPWu0jV0HN7iYwp8wlawXt8HCvsBqJewQH/mJvgPuhFcxZdhrgRlifdodOmvKywS6jftBw==);strokeColor=#647687;spacingTop=-1;spacingBottom=-1;spacingLeft=-1;spacingRight=-1;points=[[0,0.75,0],[0,0.5,0],[0,0.25,0],[0.25,0,0],[0.5,0,0],[0.75,0,0],[1,0.25,0],[1,0.5,0],[1,0.75,0],[0.75,1,0],[0.5,1,0],[0.25,1,0]];labelBackgroundColor=none;rounded=1;html=1;whiteSpace=wrap;fontFamily=Calibri;fontSize=19;fontStyle=1;fontColor=#FFFFFF;" parent="aonm1SXAe8uSIM5W8oRi-17" vertex="1">
          <mxGeometry width="462" height="76" as="geometry" />
        </mxCell>
        <mxCell id="aonm1SXAe8uSIM5W8oRi-19" value="&lt;div style=&quot;font-size: 19px;&quot;&gt;&lt;/div&gt;" style="verticalAlign=middle;align=center;overflow=width;vsdxID=168;fillColor=none;gradientColor=none;strokeColor=none;strokeWidth=2;spacingTop=-3;spacingBottom=-3;spacingLeft=-3;spacingRight=-3;points=[[0,0.75,0],[0,0.5,0],[0,0.25,0],[0.25,0,0],[0.5,0,0],[0.75,0,0],[1,0.25,0],[1,0.5,0],[1,0.75,0],[0.75,1,0],[0.5,1,0],[0.25,1,0]];labelBackgroundColor=none;rounded=0;html=1;whiteSpace=wrap;fontFamily=Calibri;fontSize=19;fontStyle=1;fontColor=#FFFFFF;" parent="aonm1SXAe8uSIM5W8oRi-17" vertex="1">
          <mxGeometry x="232" y="56" width="16" height="16" as="geometry" />
        </mxCell>
        <mxCell id="aonm1SXAe8uSIM5W8oRi-20" value="&lt;div style=&quot;font-size: 19px;&quot;&gt;&lt;/div&gt;" style="verticalAlign=middle;align=center;overflow=width;vsdxID=176;fillColor=none;gradientColor=none;strokeColor=none;spacingTop=-1;spacingBottom=-1;spacingLeft=-1;spacingRight=-1;points=[[0,0.75,0],[0,0.5,0],[0,0.25,0],[0.25,0,0],[0.5,0,0],[0.75,0,0],[1,0.25,0],[1,0.5,0],[1,0.75,0],[0.75,1,0],[0.5,1,0],[0.25,1,0]];labelBackgroundColor=none;rounded=0;html=1;whiteSpace=wrap;fontFamily=Calibri;fontSize=19;fontStyle=1;fontColor=#FFFFFF;" parent="aonm1SXAe8uSIM5W8oRi-17" vertex="1">
          <mxGeometry x="5" y="5" width="14" height="14" as="geometry" />
        </mxCell>
        <mxCell id="aonm1SXAe8uSIM5W8oRi-21" value="&lt;div style=&quot;font-size: 19px;&quot;&gt;&lt;font style=&quot;font-size: 19px; direction: ltr; letter-spacing: 0px; line-height: 120%; opacity: 1;&quot;&gt;&lt;span style=&quot;font-size: 19px;&quot;&gt;APP&lt;br style=&quot;font-size: 19px;&quot;&gt;&lt;/span&gt;&lt;/font&gt;&lt;/div&gt;" style="text;vsdxID=163;fillColor=none;gradientColor=none;strokeColor=none;spacingTop=-1;spacingBottom=-1;spacingLeft=-1;spacingRight=-1;points=[[0.14,1,0]];labelBackgroundColor=none;rounded=1;html=1;whiteSpace=wrap;verticalAlign=middle;align=center;overflow=width;;html=1;fontFamily=Calibri;fontSize=19;fontStyle=1;fontColor=#FFFFFF;" parent="aonm1SXAe8uSIM5W8oRi-17" vertex="1">
          <mxGeometry y="37.9" width="462.52" as="geometry" />
        </mxCell>
        <UserObject label="" BpmnName="LIB" tags="Flowchart" id="aonm1SXAe8uSIM5W8oRi-22">
          <mxCell style="vsdxID=209;fillColor=none;gradientColor=none;strokeColor=none;spacingTop=-1;spacingBottom=-1;spacingLeft=-1;spacingRight=-1;points=[[0,0.75,0],[0,0.5,0],[0,0.25,0],[0.25,0,0],[0.5,0,0],[0.75,0,0],[1,0.25,0],[1,0.5,0],[1,0.75,0],[0.75,1,0],[0.5,1,0],[0.25,1,0]];labelBackgroundColor=none;rounded=1;html=1;whiteSpace=wrap;" parent="1" vertex="1">
            <mxGeometry x="788" y="-1134.6" width="101" height="539" as="geometry" />
          </mxCell>
        </UserObject>
        <mxCell id="aonm1SXAe8uSIM5W8oRi-23" style="vsdxID=210;fillColor=#a5a5a5;gradientColor=none;shape=stencil(nZCxDsIwDES/xitKk6V7KT/AF0TUEIuQVGmgwNeT9kCqOjB0s++efdKRaQZneyathpzilUfpsiOzJ60lOE6Sy0SmJdOcY+JLivfQYe9tIbWaFe5wU020VjadjvJmaPWu0jV0HN7iYwp8wlawXt8HCvsBqJewQH/mJvgPuhFcxZdhrgRlifdodOmvKywS6jftBw==);strokeColor=#a5a5a5;spacingTop=-1;spacingBottom=-1;spacingLeft=-1;spacingRight=-1;points=[[0,0.75,0],[0,0.5,0],[0,0.25,0],[0.25,0,0],[0.5,0,0],[0.75,0,0],[1,0.25,0],[1,0.5,0],[1,0.75,0],[0.75,1,0],[0.5,1,0],[0.25,1,0]];labelBackgroundColor=none;rounded=1;html=1;whiteSpace=wrap;" parent="aonm1SXAe8uSIM5W8oRi-22" vertex="1">
          <mxGeometry width="101" height="539" as="geometry" />
        </mxCell>
        <mxCell id="aonm1SXAe8uSIM5W8oRi-24" value="&lt;div style=&quot;font-size: 1px&quot;&gt;&lt;/div&gt;" style="verticalAlign=middle;align=center;overflow=width;vsdxID=214;fillColor=none;gradientColor=none;strokeColor=none;strokeWidth=2;spacingTop=-3;spacingBottom=-3;spacingLeft=-3;spacingRight=-3;points=[[0,0.75,0],[0,0.5,0],[0,0.25,0],[0.25,0,0],[0.5,0,0],[0.75,0,0],[1,0.25,0],[1,0.5,0],[1,0.75,0],[0.75,1,0],[0.5,1,0],[0.25,1,0]];labelBackgroundColor=none;rounded=0;html=1;whiteSpace=wrap;" parent="aonm1SXAe8uSIM5W8oRi-22" vertex="1">
          <mxGeometry x="51" y="519" width="16" height="16" as="geometry" />
        </mxCell>
        <mxCell id="aonm1SXAe8uSIM5W8oRi-25" value="&lt;div style=&quot;font-size: 1px&quot;&gt;&lt;/div&gt;" style="verticalAlign=middle;align=center;overflow=width;vsdxID=222;fillColor=none;gradientColor=none;strokeColor=none;spacingTop=-1;spacingBottom=-1;spacingLeft=-1;spacingRight=-1;points=[[0,0.75,0],[0,0.5,0],[0,0.25,0],[0.25,0,0],[0.5,0,0],[0.75,0,0],[1,0.25,0],[1,0.5,0],[1,0.75,0],[0.75,1,0],[0.5,1,0],[0.25,1,0]];labelBackgroundColor=none;rounded=0;html=1;whiteSpace=wrap;" parent="aonm1SXAe8uSIM5W8oRi-22" vertex="1">
          <mxGeometry x="5" y="5" width="14" height="14" as="geometry" />
        </mxCell>
        <mxCell id="aonm1SXAe8uSIM5W8oRi-26" value="&lt;div style=&quot;font-size: 1px&quot;&gt;&lt;font style=&quot;font-size:19.76px;font-family:Calibri;color:#ffffff;direction:ltr;letter-spacing:0px;line-height:120%;opacity:1&quot;&gt;LIB&lt;br/&gt;&lt;/font&gt;&lt;/div&gt;" style="text;vsdxID=209;fillColor=none;gradientColor=none;strokeColor=none;spacingTop=-1;spacingBottom=-1;spacingLeft=-1;spacingRight=-1;points=[[0,0.75,0],[0,0.5,0],[0,0.25,0],[0.25,0,0],[0.5,0,0],[0.75,0,0],[1,0.25,0],[1,0.5,0],[1,0.75,0],[0.75,1,0],[0.5,1,0],[0.25,1,0]];labelBackgroundColor=none;rounded=1;html=1;whiteSpace=wrap;verticalAlign=middle;align=center;overflow=width;rotation=270.05;;html=1;" parent="aonm1SXAe8uSIM5W8oRi-22" vertex="1">
          <mxGeometry x="-38.1" y="265.95" width="101.6" as="geometry" />
        </mxCell>
        <UserObject label="Con" tags="Background" id="aonm1SXAe8uSIM5W8oRi-27">
          <mxCell style="vsdxID=259;fillColor=none;gradientColor=none;strokeColor=none;points=[];labelBackgroundColor=none;rounded=0;html=1;whiteSpace=wrap;" parent="1" vertex="1">
            <mxGeometry x="824" y="-1108.6" width="50" height="220" as="geometry" />
          </mxCell>
        </UserObject>
        <mxCell id="aonm1SXAe8uSIM5W8oRi-28" style="vsdxID=232;fillColor=none;gradientColor=none;strokeColor=none;spacingTop=-1;spacingBottom=-1;spacingLeft=-1;spacingRight=-1;points=[[0,0.75,0],[0,0.5,0],[0,0.25,0],[0.25,0,0],[0.5,0,0],[0.75,0,0],[1,0.25,0],[1,0.5,0],[1,0.75,0],[0.75,1,0],[0.5,1,0],[0.25,1,0]];labelBackgroundColor=none;rounded=1;html=1;whiteSpace=wrap;" parent="aonm1SXAe8uSIM5W8oRi-27" vertex="1">
          <mxGeometry width="50" height="220" as="geometry" />
        </mxCell>
        <mxCell id="aonm1SXAe8uSIM5W8oRi-29" style="vsdxID=233;fillColor=#ffffff;gradientColor=none;shape=stencil(nZCxDsIwDES/xitKk6V7KT/AF0TUEIuQVGmgwNeT9kCqOjB0s++efdKRaQZneyathpzilUfpsiOzJ60lOE6Sy0SmJdOcY+JLivfQYe9tIbWaFe5wU020VjadjvJmaPWu0jV0HN7iYwp8wlawXt8HCvsBqJewQH/mJvgPuhFcxZdhrgRlifdodOmvKywS6jftBw==);strokeColor=#a5a5a5;spacingTop=-1;spacingBottom=-1;spacingLeft=-1;spacingRight=-1;points=[[0,0.75,0],[0,0.5,0],[0,0.25,0],[0.25,0,0],[0.5,0,0],[0.75,0,0],[1,0.25,0],[1,0.5,0],[1,0.75,0],[0.75,1,0],[0.5,1,0],[0.25,1,0]];labelBackgroundColor=none;rounded=1;html=1;whiteSpace=wrap;" parent="aonm1SXAe8uSIM5W8oRi-28" vertex="1">
          <mxGeometry width="50" height="220" as="geometry" />
        </mxCell>
        <mxCell id="aonm1SXAe8uSIM5W8oRi-30" value="&lt;div style=&quot;font-size: 1px&quot;&gt;&lt;/div&gt;" style="verticalAlign=middle;align=center;overflow=width;vsdxID=237;fillColor=none;gradientColor=none;strokeColor=none;strokeWidth=2;spacingTop=-3;spacingBottom=-3;spacingLeft=-3;spacingRight=-3;points=[[0,0.75,0],[0,0.5,0],[0,0.25,0],[0.25,0,0],[0.5,0,0],[0.75,0,0],[1,0.25,0],[1,0.5,0],[1,0.75,0],[0.75,1,0],[0.5,1,0],[0.25,1,0]];labelBackgroundColor=none;rounded=0;html=1;whiteSpace=wrap;" parent="aonm1SXAe8uSIM5W8oRi-28" vertex="1">
          <mxGeometry x="26" y="200" width="16" height="16" as="geometry" />
        </mxCell>
        <mxCell id="aonm1SXAe8uSIM5W8oRi-31" value="&lt;div style=&quot;font-size: 1px&quot;&gt;&lt;/div&gt;" style="verticalAlign=middle;align=center;overflow=width;vsdxID=245;fillColor=none;gradientColor=none;strokeColor=none;spacingTop=-1;spacingBottom=-1;spacingLeft=-1;spacingRight=-1;points=[[0,0.75,0],[0,0.5,0],[0,0.25,0],[0.25,0,0],[0.5,0,0],[0.75,0,0],[1,0.25,0],[1,0.5,0],[1,0.75,0],[0.75,1,0],[0.5,1,0],[0.25,1,0]];labelBackgroundColor=none;rounded=0;html=1;whiteSpace=wrap;" parent="aonm1SXAe8uSIM5W8oRi-28" vertex="1">
          <mxGeometry x="5" y="5" width="14" height="14" as="geometry" />
        </mxCell>
        <mxCell id="aonm1SXAe8uSIM5W8oRi-32" value="&lt;div style=&quot;font-size: 1px&quot;&gt;&lt;/div&gt;" style="text;vsdxID=232;fillColor=none;gradientColor=none;strokeColor=none;spacingTop=-1;spacingBottom=-1;spacingLeft=-1;spacingRight=-1;points=[[0,0.75,0],[0,0.5,0],[0,0.25,0],[0.25,0,0],[0.5,0,0],[0.75,0,0],[1,0.25,0],[1,0.5,0],[1,0.75,0],[0.75,1,0],[0.5,1,0],[0.25,1,0]];labelBackgroundColor=none;rounded=1;html=1;whiteSpace=wrap;verticalAlign=top;align=center;overflow=width;rotation=270.05;;html=1;" parent="aonm1SXAe8uSIM5W8oRi-28" vertex="1">
          <mxGeometry x="-14.29" y="117.61" width="50.8" as="geometry" />
        </mxCell>
        <mxCell id="aonm1SXAe8uSIM5W8oRi-33" value="&lt;div style=&quot;font-size: 1px&quot;&gt;&lt;font style=&quot;font-size:16.93px;font-family:Calibri;color:#5b9bd5;direction:ltr;letter-spacing:0px;line-height:120%;opacity:1&quot;&gt;&lt;b&gt;CONFIG&lt;/b&gt;&lt;/font&gt;&lt;/div&gt;" style="verticalAlign=middle;align=center;overflow=width;vsdxID=257;rotation=270;fillColor=none;gradientColor=none;shape=stencil(nZBLDoAgDERP0z3SIyjew0SURgSD+Lu9kMZoXLhwN9O+tukAlrNpJg1SzDH4QW/URgNYgZTkjA4UkwJUgGXng+6DX1zLfmoymdXo17xh5zmRJ6Q42BWCfc2oJfdAr+Yv+AP9Cb7OJ3H/2JG1HNGz/84klThPVCc=);strokeColor=none;points=[];labelBackgroundColor=none;rounded=0;html=1;whiteSpace=wrap;" parent="aonm1SXAe8uSIM5W8oRi-27" vertex="1">
          <mxGeometry x="-81" y="92" width="211" height="35" as="geometry" />
        </mxCell>
        <UserObject label="&lt;font style=&quot;font-size: 21px;&quot;&gt;LIB&lt;/font&gt;" tags="Background" id="aonm1SXAe8uSIM5W8oRi-34">
          <mxCell style="vsdxID=492;fillColor=none;gradientColor=none;strokeColor=none;points=[];labelBackgroundColor=none;rounded=0;html=1;whiteSpace=wrap;horizontal=0;fontFamily=Calibri;fontSize=19;fontColor=#ffffff;" parent="1" vertex="1">
            <mxGeometry x="769" y="-917.6" width="73" height="104" as="geometry" />
          </mxCell>
        </UserObject>
        <UserObject label="" tags="Background" id="aonm1SXAe8uSIM5W8oRi-35">
          <mxCell style="vsdxID=542;fillColor=none;gradientColor=none;strokeColor=none;points=[];labelBackgroundColor=none;rounded=0;html=1;whiteSpace=wrap;" parent="1" vertex="1">
            <mxGeometry x="824" y="-846.6" width="50" height="220" as="geometry" />
          </mxCell>
        </UserObject>
        <mxCell id="aonm1SXAe8uSIM5W8oRi-36" style="vsdxID=543;fillColor=none;gradientColor=none;strokeColor=none;spacingTop=-1;spacingBottom=-1;spacingLeft=-1;spacingRight=-1;points=[[0,0.75,0],[0,0.5,0],[0,0.25,0],[0.25,0,0],[0.5,0,0],[0.75,0,0],[1,0.25,0],[1,0.5,0],[1,0.75,0],[0.75,1,0],[0.5,1,0],[0.25,1,0]];labelBackgroundColor=none;rounded=1;html=1;whiteSpace=wrap;" parent="aonm1SXAe8uSIM5W8oRi-35" vertex="1">
          <mxGeometry width="50" height="220" as="geometry" />
        </mxCell>
        <mxCell id="aonm1SXAe8uSIM5W8oRi-37" style="vsdxID=544;fillColor=#ffffff;gradientColor=none;shape=stencil(nZCxDsIwDES/xitKk6V7KT/AF0TUEIuQVGmgwNeT9kCqOjB0s++efdKRaQZneyathpzilUfpsiOzJ60lOE6Sy0SmJdOcY+JLivfQYe9tIbWaFe5wU020VjadjvJmaPWu0jV0HN7iYwp8wlawXt8HCvsBqJewQH/mJvgPuhFcxZdhrgRlifdodOmvKywS6jftBw==);strokeColor=#a5a5a5;spacingTop=-1;spacingBottom=-1;spacingLeft=-1;spacingRight=-1;points=[[0,0.75,0],[0,0.5,0],[0,0.25,0],[0.25,0,0],[0.5,0,0],[0.75,0,0],[1,0.25,0],[1,0.5,0],[1,0.75,0],[0.75,1,0],[0.5,1,0],[0.25,1,0]];labelBackgroundColor=none;rounded=1;html=1;whiteSpace=wrap;" parent="aonm1SXAe8uSIM5W8oRi-36" vertex="1">
          <mxGeometry width="50" height="220" as="geometry" />
        </mxCell>
        <mxCell id="aonm1SXAe8uSIM5W8oRi-38" value="&lt;div style=&quot;font-size: 1px&quot;&gt;&lt;/div&gt;" style="verticalAlign=middle;align=center;overflow=width;vsdxID=548;fillColor=none;gradientColor=none;strokeColor=none;strokeWidth=2;spacingTop=-3;spacingBottom=-3;spacingLeft=-3;spacingRight=-3;points=[[0,0.75,0],[0,0.5,0],[0,0.25,0],[0.25,0,0],[0.5,0,0],[0.75,0,0],[1,0.25,0],[1,0.5,0],[1,0.75,0],[0.75,1,0],[0.5,1,0],[0.25,1,0]];labelBackgroundColor=none;rounded=0;html=1;whiteSpace=wrap;" parent="aonm1SXAe8uSIM5W8oRi-36" vertex="1">
          <mxGeometry x="26" y="200" width="16" height="16" as="geometry" />
        </mxCell>
        <mxCell id="aonm1SXAe8uSIM5W8oRi-39" value="&lt;div style=&quot;font-size: 1px&quot;&gt;&lt;/div&gt;" style="verticalAlign=middle;align=center;overflow=width;vsdxID=556;fillColor=none;gradientColor=none;strokeColor=none;spacingTop=-1;spacingBottom=-1;spacingLeft=-1;spacingRight=-1;points=[[0,0.75,0],[0,0.5,0],[0,0.25,0],[0.25,0,0],[0.5,0,0],[0.75,0,0],[1,0.25,0],[1,0.5,0],[1,0.75,0],[0.75,1,0],[0.5,1,0],[0.25,1,0]];labelBackgroundColor=none;rounded=0;html=1;whiteSpace=wrap;" parent="aonm1SXAe8uSIM5W8oRi-36" vertex="1">
          <mxGeometry x="5" y="5" width="14" height="14" as="geometry" />
        </mxCell>
        <mxCell id="aonm1SXAe8uSIM5W8oRi-40" value="&lt;div style=&quot;font-size: 1px&quot;&gt;&lt;/div&gt;" style="text;vsdxID=543;fillColor=none;gradientColor=none;strokeColor=none;spacingTop=-1;spacingBottom=-1;spacingLeft=-1;spacingRight=-1;points=[[0,0.75,0],[0,0.5,0],[0,0.25,0],[0.25,0,0],[0.5,0,0],[0.75,0,0],[1,0.25,0],[1,0.5,0],[1,0.75,0],[0.75,1,0],[0.5,1,0],[0.25,1,0]];labelBackgroundColor=none;rounded=1;html=1;whiteSpace=wrap;verticalAlign=top;align=center;overflow=width;rotation=270.05;;html=1;" parent="aonm1SXAe8uSIM5W8oRi-36" vertex="1">
          <mxGeometry x="-14.29" y="117.61" width="50.8" as="geometry" />
        </mxCell>
        <mxCell id="aonm1SXAe8uSIM5W8oRi-41" value="&lt;div style=&quot;font-size: 1px&quot;&gt;&lt;font style=&quot;font-size:16.93px;font-family:Calibri;color:#5b9bd5;direction:ltr;letter-spacing:0px;line-height:120%;opacity:1&quot;&gt;&lt;b&gt;STD&lt;br&gt;&lt;/b&gt;&lt;/font&gt;&lt;/div&gt;" style="verticalAlign=middle;align=center;overflow=width;vsdxID=566;rotation=270;fillColor=none;gradientColor=none;shape=stencil(nZBLDoAgDERP0z3SIyjew0SURgSD+Lu9kMZoXLhwN9O+tukAlrNpJg1SzDH4QW/URgNYgZTkjA4UkwJUgGXng+6DX1zLfmoymdXo17xh5zmRJ6Q42BWCfc2oJfdAr+Yv+AP9Cb7OJ3H/2JG1HNGz/84klThPVCc=);strokeColor=none;points=[];labelBackgroundColor=none;rounded=0;html=1;whiteSpace=wrap;" parent="aonm1SXAe8uSIM5W8oRi-35" vertex="1">
          <mxGeometry x="-81" y="92" width="211" height="35" as="geometry" />
        </mxCell>
        <mxCell id="aonm1SXAe8uSIM5W8oRi-42" value="&lt;div style=&quot;font-size: 19px;&quot;&gt;&lt;/div&gt;" style="verticalAlign=middle;align=center;overflow=width;vsdxID=99;fillColor=none;gradientColor=none;strokeColor=none;strokeWidth=2;spacingTop=-3;spacingBottom=-3;spacingLeft=-3;spacingRight=-3;points=[[0,0.75,0],[0,0.5,0],[0,0.25,0],[0.25,0,0],[0.5,0,0],[0.75,0,0],[1,0.25,0],[1,0.5,0],[1,0.75,0],[0.75,1,0],[0.5,1,0],[0.25,1,0]];labelBackgroundColor=none;rounded=0;html=1;whiteSpace=wrap;fontFamily=Calibri;fontSize=19;fontStyle=1;fontColor=#FFFFFF;" parent="1" vertex="1">
          <mxGeometry x="1179" y="-614.6" width="16" height="16" as="geometry" />
        </mxCell>
        <mxCell id="aonm1SXAe8uSIM5W8oRi-43" value="&lt;div style=&quot;font-size: 19px;&quot;&gt;&lt;/div&gt;" style="verticalAlign=middle;align=center;overflow=width;vsdxID=107;fillColor=none;gradientColor=none;strokeColor=none;spacingTop=-1;spacingBottom=-1;spacingLeft=-1;spacingRight=-1;points=[[0,0.75,0],[0,0.5,0],[0,0.25,0],[0.25,0,0],[0.5,0,0],[0.75,0,0],[1,0.25,0],[1,0.5,0],[1,0.75,0],[0.75,1,0],[0.5,1,0],[0.25,1,0]];labelBackgroundColor=none;rounded=0;html=1;whiteSpace=wrap;fontFamily=Calibri;fontSize=19;fontStyle=1;fontColor=#FFFFFF;" parent="1" vertex="1">
          <mxGeometry x="907" y="-633.6" width="14" height="14" as="geometry" />
        </mxCell>
        <mxCell id="aonm1SXAe8uSIM5W8oRi-44" value="&lt;div style=&quot;font-size: 19px;&quot;&gt;&lt;font style=&quot;font-size: 19px; direction: ltr; letter-spacing: 0px; line-height: 120%; opacity: 1;&quot;&gt;Microcontroller&lt;br style=&quot;font-size: 19px;&quot;&gt;&lt;/font&gt;&lt;/div&gt;" style="text;vsdxID=94;fillColor=none;gradientColor=none;strokeColor=none;spacingTop=-1;spacingBottom=-1;spacingLeft=-1;spacingRight=-1;points=[[0,0.75,0],[0,0.5,0],[0,0.25,0],[0.25,0,0],[0.5,0,0],[0.75,0,0],[1,0.25,0],[1,0.5,0],[1,0.75,0],[0.75,1,0],[0.5,1,0],[0.25,1,0]];labelBackgroundColor=none;rounded=1;html=1;whiteSpace=wrap;verticalAlign=middle;align=center;overflow=width;;html=1;fontFamily=Calibri;fontSize=19;fontStyle=1;fontColor=#FFFFFF;" parent="1" vertex="1">
          <mxGeometry x="902" y="-616.82" width="552.45" as="geometry" />
        </mxCell>
        <mxCell id="aonm1SXAe8uSIM5W8oRi-45" value="&lt;span style=&quot;font-size: 20px; font-weight: 400;&quot;&gt;CMSIS&lt;br&gt;&lt;/span&gt;" style="vsdxID=95;fillColor=#dae8fc;shape=stencil(nZCxDsIwDES/xitKk6V7KT/AF0TUEIuQVGmgwNeT9kCqOjB0s++efdKRaQZneyathpzilUfpsiOzJ60lOE6Sy0SmJdOcY+JLivfQYe9tIbWaFe5wU020VjadjvJmaPWu0jV0HN7iYwp8wlawXt8HCvsBqJewQH/mJvgPuhFcxZdhrgRlifdodOmvKywS6jftBw==);strokeColor=#6c8ebf;spacingTop=-1;spacingBottom=-1;spacingLeft=-1;spacingRight=-1;points=[[0,0.75,0],[0,0.5,0],[0,0.25,0],[0.25,0,0],[0.5,0,0],[0.75,0,0],[1,0.25,0],[1,0.5,0],[1,0.75,0],[0.75,1,0],[0.5,1,0],[0.25,1,0]];labelBackgroundColor=none;rounded=1;html=1;whiteSpace=wrap;fontFamily=Calibri;fontSize=19;fontStyle=1;" parent="1" vertex="1">
          <mxGeometry x="902" y="-970" width="552" height="313.4" as="geometry" />
        </mxCell>
        <mxCell id="aonm1SXAe8uSIM5W8oRi-49" value="&lt;span style=&quot;font-size: 20px; font-weight: 400;&quot;&gt;OS&lt;/span&gt;" style="vsdxID=95;fillColor=#d5e8d4;shape=stencil(nZCxDsIwDES/xitKk6V7KT/AF0TUEIuQVGmgwNeT9kCqOjB0s++efdKRaQZneyathpzilUfpsiOzJ60lOE6Sy0SmJdOcY+JLivfQYe9tIbWaFe5wU020VjadjvJmaPWu0jV0HN7iYwp8wlawXt8HCvsBqJewQH/mJvgPuhFcxZdhrgRlifdodOmvKywS6jftBw==);strokeColor=#82b366;spacingTop=-1;spacingBottom=-1;spacingLeft=-1;spacingRight=-1;points=[[0,0.75,0],[0,0.5,0],[0,0.25,0],[0.25,0,0],[0.5,0,0],[0.75,0,0],[1,0.25,0],[1,0.5,0],[1,0.75,0],[0.75,1,0],[0.5,1,0],[0.25,1,0]];labelBackgroundColor=none;rounded=1;html=1;whiteSpace=wrap;fontFamily=Calibri;fontSize=19;fontStyle=1;arcSize=15;labelPosition=center;verticalLabelPosition=middle;align=center;verticalAlign=top;" parent="1" vertex="1">
          <mxGeometry x="1464" y="-1134.6" width="127" height="476" as="geometry" />
        </mxCell>
        <mxCell id="aonm1SXAe8uSIM5W8oRi-50" value="FreeRTOS" style="vsdxID=334;fillColor=#60a917;shape=stencil(nZCxDsIwDES/xitKk6V7KT/AF0TUEIuQVGmgwNeT9kCqOjB0s++efdKRaQZneyathpzilUfpsiOzJ60lOE6Sy0SmJdOcY+JLivfQYe9tIbWaFe5wU020VjadjvJmaPWu0jV0HN7iYwp8wlawXt8HCvsBqJewQH/mJvgPuhFcxZdhrgRlifdodOmvKywS6jftBw==);strokeColor=#2D7600;spacingTop=-1;spacingBottom=-1;spacingLeft=-1;spacingRight=-1;points=[[0,0.75,0],[0,0.5,0],[0,0.25,0],[0.25,0,0],[0.5,0,0],[0.75,0,0],[1,0.25,0],[1,0.5,0],[1,0.75,0],[0.75,1,0],[0.5,1,0],[0.25,1,0]];labelBackgroundColor=none;rounded=1;html=1;whiteSpace=wrap;fontColor=#ffffff;fontFamily=Calibri;fontSize=19;fontStyle=1;horizontal=0;align=center;" parent="1" vertex="1">
          <mxGeometry x="1490.25" y="-1087.1" width="74.5" height="406" as="geometry" />
        </mxCell>
        <mxCell id="aonm1SXAe8uSIM5W8oRi-52" value="" style="vsdxID=95;fillColor=#e1d5e7;shape=stencil(nZCxDsIwDES/xitKk6V7KT/AF0TUEIuQVGmgwNeT9kCqOjB0s++efdKRaQZneyathpzilUfpsiOzJ60lOE6Sy0SmJdOcY+JLivfQYe9tIbWaFe5wU020VjadjvJmaPWu0jV0HN7iYwp8wlawXt8HCvsBqJewQH/mJvgPuhFcxZdhrgRlifdodOmvKywS6jftBw==);strokeColor=#9673a6;spacingTop=-1;spacingBottom=-1;spacingLeft=-1;spacingRight=-1;points=[[0,0.75,0],[0,0.5,0],[0,0.25,0],[0.25,0,0],[0.5,0,0],[0.75,0,0],[1,0.25,0],[1,0.5,0],[1,0.75,0],[0.75,1,0],[0.5,1,0],[0.25,1,0]];labelBackgroundColor=none;rounded=1;html=1;whiteSpace=wrap;fontFamily=Calibri;fontSize=19;fontStyle=1;arcSize=15;verticalAlign=top;" parent="1" vertex="1">
          <mxGeometry x="2" y="-980" width="485" height="111" as="geometry" />
        </mxCell>
        <mxCell id="aonm1SXAe8uSIM5W8oRi-53" value="&lt;span style=&quot;font-size: 20px; font-weight: 400;&quot;&gt;&lt;br&gt;&lt;br&gt;&lt;/span&gt;" style="vsdxID=95;fillColor=#dae8fc;shape=stencil(nZCxDsIwDES/xitKk6V7KT/AF0TUEIuQVGmgwNeT9kCqOjB0s++efdKRaQZneyathpzilUfpsiOzJ60lOE6Sy0SmJdOcY+JLivfQYe9tIbWaFe5wU020VjadjvJmaPWu0jV0HN7iYwp8wlawXt8HCvsBqJewQH/mJvgPuhFcxZdhrgRlifdodOmvKywS6jftBw==);strokeColor=none;spacingTop=-1;spacingBottom=-1;spacingLeft=-1;spacingRight=-1;points=[[0,0.75,0],[0,0.5,0],[0,0.25,0],[0.25,0,0],[0.5,0,0],[0.75,0,0],[1,0.25,0],[1,0.5,0],[1,0.75,0],[0.75,1,0],[0.5,1,0],[0.25,1,0]];labelBackgroundColor=none;rounded=1;html=1;whiteSpace=wrap;fontFamily=Calibri;fontSize=19;fontStyle=1;" parent="1" vertex="1">
          <mxGeometry x="-64.55" y="-977" width="56.55" height="316" as="geometry" />
        </mxCell>
        <mxCell id="aonm1SXAe8uSIM5W8oRi-54" value="RC" style="vsdxID=334;fillColor=#76608a;shape=stencil(nZCxDsIwDES/xitKk6V7KT/AF0TUEIuQVGmgwNeT9kCqOjB0s++efdKRaQZneyathpzilUfpsiOzJ60lOE6Sy0SmJdOcY+JLivfQYe9tIbWaFe5wU020VjadjvJmaPWu0jV0HN7iYwp8wlawXt8HCvsBqJewQH/mJvgPuhFcxZdhrgRlifdodOmvKywS6jftBw==);strokeColor=#432D57;spacingTop=-1;spacingBottom=-1;spacingLeft=-1;spacingRight=-1;points=[[0,0.75,0],[0,0.5,0],[0,0.25,0],[0.25,0,0],[0.5,0,0],[0.75,0,0],[1,0.25,0],[1,0.5,0],[1,0.75,0],[0.75,1,0],[0.5,1,0],[0.25,1,0]];labelBackgroundColor=none;rounded=1;html=1;whiteSpace=wrap;fontFamily=Calibri;fontSize=19;fontStyle=1;fontColor=#ffffff;" parent="1" vertex="1">
          <mxGeometry x="18.5" y="-956" width="452" height="63" as="geometry" />
        </mxCell>
      </root>
    </mxGraphModel>
  </diagram>
</mxfile>
